<svg width="401" height="440" viewBox="0 0 401 440" fill="none" xmlns="http://www.w3.org/2000/svg">
<path d="M269.693 151.69C269.693 151.69 248.011 2.47656 208.131 2.47656C144.08 2.47656 107.968 156.737 107.968 156.737" stroke="#F9BA79" stroke-width="4.6918" stroke-linecap="round" stroke-linejoin="round"/>
<path d="M283.697 149.689C284.834 157.367 279.503 164.547 271.754 165.684C264.077 166.822 256.897 161.49 255.759 153.741C254.622 146.064 259.953 138.884 267.702 137.747C275.451 136.609 282.559 141.941 283.697 149.689Z" fill="#F9BA79"/>
<path d="M94.1767 153.553C92.3995 161.16 97.0913 168.766 104.698 170.543C112.304 172.32 119.911 167.629 121.688 160.022C123.465 152.416 118.773 144.809 111.167 143.032C103.56 141.255 95.9539 145.947 94.1767 153.553Z" fill="#F9BA79"/>
<path d="M365.59 154.266L64.8172 170.687L44.5571 439.897L400.992 417.149L365.59 154.266Z" fill="#5B4A9A"/>
<path d="M64.8169 170.682L87.5651 154.261L44.5569 137.484L0.126953 406.126L33.0407 402.287L44.5569 439.892L64.8169 170.682Z" fill="#46377D"/>
<path d="M365.59 154.252L322.653 142.878L347.107 126.883L44.5571 137.475L87.5653 154.252L64.8172 170.673L365.59 154.252Z" fill="#322565"/>
<path d="M299.195 181.192C299.195 181.192 245.026 2.47656 205.074 2.47656C141.024 2.47656 137.398 186.239 137.398 186.239" stroke="#F9BA79" stroke-width="4.6918" stroke-linecap="round" stroke-linejoin="round"/>
<path d="M312.701 177.143C314.976 184.607 310.781 192.498 303.317 194.773C295.853 197.047 287.962 192.853 285.687 185.389C283.413 177.925 287.607 170.034 295.071 167.759C302.535 165.484 310.426 169.679 312.701 177.143Z" fill="#F9BA79"/>
<path d="M123.323 185.95C123.181 193.77 129.365 200.168 137.185 200.31C145.005 200.452 151.402 194.268 151.545 186.448C151.687 178.628 145.502 172.231 137.682 172.088C129.863 171.946 123.465 178.131 123.323 185.95Z" fill="#F9BA79"/>
<path d="M133.559 306.432C125.881 299.181 121.758 288.944 121.118 275.793C120.692 267.191 122.043 259.514 125.099 252.974C128.156 246.363 132.564 241.244 138.322 237.477C144.08 233.78 150.762 231.718 158.368 231.363C170.098 230.794 179.766 234.206 187.443 241.529C195.121 248.851 199.315 259.016 199.884 272.025C200.524 285.177 197.325 295.769 190.429 303.73C183.462 311.692 174.15 315.958 162.42 316.526C150.833 317.095 141.236 313.754 133.559 306.432ZM170.596 289.939C172.799 286.314 173.652 280.769 173.297 273.305C172.941 265.841 171.52 260.438 169.032 257.026C166.544 253.613 163.274 252.05 159.364 252.192C155.525 252.405 152.539 254.324 150.264 258.021C147.99 261.717 147.065 267.262 147.421 274.584C147.776 281.906 149.269 287.309 151.828 290.792C154.388 294.276 157.587 295.911 161.425 295.698C165.406 295.484 168.463 293.636 170.596 290.01V289.939ZM249.29 228.946L280.924 227.453L183.391 386.121L151.757 387.614L249.29 228.946ZM245.309 373.681C237.703 366.43 233.579 356.193 232.94 343.042C232.3 330.033 235.499 319.512 242.394 311.479C249.361 303.446 258.602 299.181 270.19 298.612C281.919 298.043 291.587 301.456 299.265 308.778C306.942 316.1 311.136 326.265 311.705 339.345C312.345 352.497 309.146 363.089 302.25 371.051C295.284 379.013 285.971 383.278 274.242 383.847C262.512 384.415 252.844 381.074 245.238 373.823L245.309 373.681ZM282.488 357.189C284.692 353.563 285.545 348.018 285.189 340.554C284.834 333.09 283.412 327.687 280.924 324.275C278.436 320.863 275.166 319.299 271.256 319.441C267.275 319.654 264.218 321.502 262.086 325.199C259.882 328.824 259.029 334.369 259.384 341.834C259.74 349.298 261.162 354.7 263.721 358.113C266.209 361.525 269.479 363.089 273.389 362.947C277.299 362.733 280.426 360.814 282.559 357.26L282.488 357.189Z" fill="white"/>
<path d="M347.108 126.883L347.179 149.347L322.653 142.878L347.108 126.883Z" fill="#46377D"/>
</svg>
