<svg width="772" height="537" viewBox="0 0 772 537" fill="none" xmlns="http://www.w3.org/2000/svg">
<path d="M346.841 224.75H103.716V467.875H346.841V224.75Z" fill="#E8DBFF"/>
<path d="M181.497 246.116C160.222 246.116 128.343 235.649 91.8132 189.131L82.0991 176.749L106.863 157.253L116.577 169.635C140.794 200.419 165.489 216.632 184.507 214.511C174.588 206.644 166.584 195.835 160.974 182.496C150.303 157.048 153.313 132.01 168.978 115.523C181.018 102.868 198.052 98.4212 213.376 103.962C218.917 105.946 229.178 111.282 236.703 124.69C243.133 118.397 250.316 114.292 257.02 112.171C272.618 107.246 288.625 111.145 298.887 122.364C304.907 128.931 317.289 147.881 303.06 182.496C298.066 194.672 288.967 205.413 277.543 213.485C291.635 209.722 310.448 195.698 330.902 173.124L341.505 161.426L364.833 182.632L354.229 194.33C303.675 250.015 269.676 250.768 249.974 241.669C243.476 238.659 238.071 234.418 233.625 229.287C231.846 229.424 230.067 229.492 228.357 229.492C226.442 229.492 224.526 229.424 222.611 229.287C216.796 235.034 210.024 239.48 202.43 242.422C197.642 244.269 190.459 246.184 181.36 246.184L181.497 246.116ZM200.173 133.173C197.368 133.173 194.358 134.609 191.827 137.277C185.054 144.46 184.37 156.774 190.048 170.387C195.11 182.427 202.088 189.405 209.408 193.373C213.239 184.137 214.949 172.439 214.06 159.442C212.965 143.024 207.492 135.362 202.772 133.652C201.951 133.378 201.13 133.241 200.241 133.241L200.173 133.173ZM270.429 141.587C269.197 141.587 267.897 141.792 266.529 142.203C259.483 144.392 251.137 152.738 248.88 169.498C247.785 177.639 248.333 185.916 250.18 193.031C261.057 188.105 270.155 179.896 273.986 170.524C280.006 155.885 278.706 146.923 275.696 143.639C274.465 142.271 272.549 141.587 270.36 141.587H270.429Z" fill="#FFA241"/>
<path d="M366.201 224.75H84.3569V261.143H366.201V224.75Z" fill="#503D96"/>
<path d="M258.456 219.359H196.341V467.82H258.456V219.359Z" fill="#FFA241"/>
<path d="M529.696 213.151C490.634 213.151 458.824 181.341 458.824 142.28C458.824 103.218 490.634 71.4766 529.696 71.4766C568.757 71.4766 600.567 103.287 600.567 142.348C600.567 181.41 568.757 213.22 529.696 213.22V213.151ZM529.696 78.3174C494.397 78.3174 465.665 107.049 465.665 142.348C465.665 177.647 494.397 206.379 529.696 206.379C564.995 206.379 593.726 177.647 593.726 142.348C593.726 107.049 564.995 78.3174 529.696 78.3174Z" fill="#5B4A9A"/>
<path d="M603.373 142.344H341.299V479.599H603.373V142.344Z" fill="#5B4A9A"/>
<path d="M635.458 142.344H603.374V479.599H635.458V142.344Z" fill="#503D96"/>
<path d="M666.992 142.398H634.909V479.654H666.992V142.398Z" fill="#46377D"/>
<path d="M543.174 142.348H536.333C536.333 107.049 507.601 78.3174 472.302 78.3174C437.003 78.3174 408.272 107.049 408.272 142.348H401.431C401.431 103.287 433.241 71.4766 472.302 71.4766C511.364 71.4766 543.174 103.287 543.174 142.348Z" fill="#5B4A9A"/>
<path d="M667.473 479.521L634.91 450.242L603.374 479.521H667.473Z" fill="#322565"/>
<path d="M405.952 371.554L387.516 328.673L410.778 318.671L414.042 326.264L399.769 332.4L404.026 342.301L418.177 336.216L421.389 343.687L407.238 349.771L414.941 367.689L405.952 371.554ZM461.03 347.873L440.832 335.543L437.431 337.006L445.056 354.741L436.067 358.606L417.63 315.725L435.548 308.021C442.411 305.071 447.725 305.377 451.522 308.854C452.956 310.18 454.243 312.002 455.235 314.31C456.202 316.557 456.717 318.926 456.693 320.88C456.681 325.203 454.618 328.608 450.446 331.122L471.356 343.434L461.03 347.873ZM429.623 318.845L434.637 330.507L441.075 327.739C444.78 326.146 446.757 324.216 446.867 321.794C446.866 320.787 446.656 319.798 446.108 318.522C445.612 317.368 445.038 316.535 444.421 315.937C442.448 314.194 439.644 314.536 436.061 316.077L429.623 318.845ZM476.206 341.348L457.769 298.467L485.223 286.664L488.435 294.134L469.971 302.073L474.253 312.034L492.535 304.174L495.695 311.523L477.413 319.383L481.983 330.012L500.447 322.074L503.659 329.544L476.206 341.348ZM510.947 326.411L492.511 283.53L519.964 271.727L523.176 279.197L504.712 287.136L508.995 297.097L527.277 289.237L530.436 296.586L512.154 304.446L516.724 315.075L535.189 307.137L538.401 314.607L510.947 326.411ZM542.608 297.11L528.649 267.993L537.881 264.023L549.41 294.185L542.608 297.11ZM552.172 309.982C549.135 311.288 546.147 310.197 544.868 307.221C543.51 304.063 544.826 301.266 547.863 299.96C550.9 298.654 553.835 299.623 555.193 302.782C556.473 305.758 555.209 308.676 552.172 309.982Z" fill="white"/>
<path d="M405.952 371.554L404.731 372.079L405.256 373.3L406.477 372.775L405.952 371.554ZM387.516 328.673L386.99 327.452L385.769 327.977L386.294 329.198L387.516 328.673ZM410.778 318.671L412 318.146L411.474 316.925L410.253 317.45L410.778 318.671ZM414.042 326.264L414.567 327.485L415.789 326.96L415.264 325.738L414.042 326.264ZM399.769 332.4L399.244 331.179L398.022 331.704L398.547 332.926L399.769 332.4ZM404.026 342.301L402.804 342.826L403.329 344.047L404.551 343.522L404.026 342.301ZM418.177 336.216L419.399 335.691L418.874 334.469L417.652 334.994L418.177 336.216ZM421.389 343.687L421.915 344.908L423.136 344.383L422.611 343.161L421.389 343.687ZM407.238 349.771L406.712 348.55L405.491 349.075L406.016 350.296L407.238 349.771ZM414.941 367.689L415.466 368.91L416.688 368.385L416.163 367.164L414.941 367.689ZM405.952 371.554L407.174 371.029L388.737 328.148L387.516 328.673L386.294 329.198L404.731 372.079L405.952 371.554ZM387.516 328.673L388.041 329.895L411.303 319.893L410.778 318.671L410.253 317.45L386.99 327.452L387.516 328.673ZM410.778 318.671L409.556 319.197L412.821 326.789L414.042 326.264L415.264 325.738L412 318.146L410.778 318.671ZM414.042 326.264L413.517 325.042L399.244 331.179L399.769 332.4L400.294 333.622L414.567 327.485L414.042 326.264ZM399.769 332.4L398.547 332.926L402.804 342.826L404.026 342.301L405.247 341.775L400.991 331.875L399.769 332.4ZM404.026 342.301L404.551 343.522L418.703 337.437L418.177 336.216L417.652 334.994L403.5 341.079L404.026 342.301ZM418.177 336.216L416.956 336.741L420.168 344.212L421.389 343.687L422.611 343.161L419.399 335.691L418.177 336.216ZM421.389 343.687L420.864 342.465L406.712 348.55L407.238 349.771L407.763 350.993L421.915 344.908L421.389 343.687ZM407.238 349.771L406.016 350.296L413.72 368.214L414.941 367.689L416.163 367.164L408.459 349.246L407.238 349.771ZM414.941 367.689L414.416 366.467L405.427 370.332L405.952 371.554L406.477 372.775L415.466 368.91L414.941 367.689ZM461.03 347.873L460.337 349.008L460.924 349.366L461.555 349.094L461.03 347.873ZM440.832 335.543L441.525 334.408L440.938 334.05L440.307 334.322L440.832 335.543ZM437.431 337.006L436.906 335.784L435.684 336.309L436.209 337.531L437.431 337.006ZM445.056 354.741L445.581 355.962L446.803 355.437L446.278 354.216L445.056 354.741ZM436.067 358.606L434.845 359.131L435.371 360.353L436.592 359.827L436.067 358.606ZM417.63 315.725L417.105 314.504L415.884 315.029L416.409 316.25L417.63 315.725ZM451.522 308.854L452.425 307.878L452.42 307.873L451.522 308.854ZM456.693 320.88L455.363 320.863L455.363 320.876L456.693 320.88ZM450.446 331.122L449.76 329.983L447.847 331.135L449.771 332.268L450.446 331.122ZM471.356 343.434L471.881 344.655L474.291 343.619L472.03 342.288L471.356 343.434ZM429.623 318.845L429.098 317.624L427.876 318.149L428.401 319.37L429.623 318.845ZM434.637 330.507L433.415 331.032L433.94 332.253L435.162 331.728L434.637 330.507ZM446.867 321.794L448.195 321.854L448.197 321.823L448.197 321.792L446.867 321.794ZM444.421 315.937L445.346 314.982L445.324 314.961L445.301 314.94L444.421 315.937ZM461.03 347.873L461.723 346.738L441.525 334.408L440.832 335.543L440.139 336.678L460.337 349.008L461.03 347.873ZM440.832 335.543L440.307 334.322L436.906 335.784L437.431 337.006L437.956 338.227L441.357 336.765L440.832 335.543ZM437.431 337.006L436.209 337.531L443.835 355.266L445.056 354.741L446.278 354.216L438.652 336.48L437.431 337.006ZM445.056 354.741L444.531 353.519L435.542 357.384L436.067 358.606L436.592 359.827L445.581 355.962L445.056 354.741ZM436.067 358.606L437.289 358.081L418.852 315.2L417.63 315.725L416.409 316.25L434.845 359.131L436.067 358.606ZM417.63 315.725L418.156 316.947L436.073 309.243L435.548 308.021L435.023 306.8L417.105 314.504L417.63 315.725ZM435.548 308.021L436.073 309.243C442.697 306.395 447.374 306.859 450.624 309.834L451.522 308.854L452.42 307.873C448.075 303.895 442.126 303.746 435.023 306.8L435.548 308.021ZM451.522 308.854L450.619 309.83C451.9 311.014 453.085 312.675 454.014 314.835L455.235 314.31L456.457 313.785C455.401 311.328 454.013 309.346 452.425 307.878L451.522 308.854ZM455.235 314.31L454.014 314.835C454.922 316.947 455.384 319.131 455.363 320.863L456.693 320.88L458.022 320.896C458.049 318.722 457.482 316.167 456.457 313.785L455.235 314.31ZM456.693 320.88L455.363 320.876C455.352 324.673 453.59 327.676 449.76 329.983L450.446 331.122L451.132 332.261C455.647 329.541 458.009 325.733 458.023 320.883L456.693 320.88ZM450.446 331.122L449.771 332.268L470.681 344.579L471.356 343.434L472.03 342.288L451.12 329.976L450.446 331.122ZM471.356 343.434L470.83 342.212L460.505 346.651L461.03 347.873L461.555 349.094L471.881 344.655L471.356 343.434ZM429.623 318.845L428.401 319.37L433.415 331.032L434.637 330.507L435.858 329.981L430.844 318.32L429.623 318.845ZM434.637 330.507L435.162 331.728L441.6 328.96L441.075 327.739L440.55 326.517L434.111 329.285L434.637 330.507ZM441.075 327.739L441.6 328.96C445.395 327.328 448.048 325.096 448.195 321.854L446.867 321.794L445.539 321.734C445.466 323.336 444.165 324.963 440.55 326.517L441.075 327.739ZM446.867 321.794L448.197 321.792C448.195 320.571 447.934 319.403 447.329 317.997L446.108 318.522L444.886 319.047C445.378 320.192 445.536 321.003 445.537 321.795L446.867 321.794ZM446.108 318.522L447.329 317.997C446.778 316.715 446.113 315.726 445.346 314.982L444.421 315.937L443.495 316.892C443.963 317.345 444.445 318.021 444.886 319.047L446.108 318.522ZM444.421 315.937L445.301 314.94C442.678 312.623 439.143 313.304 435.536 314.855L436.061 316.077L436.586 317.298C440.145 315.768 442.218 315.766 443.54 316.934L444.421 315.937ZM436.061 316.077L435.536 314.855L429.098 317.624L429.623 318.845L430.148 320.067L436.586 317.298L436.061 316.077ZM476.206 341.348L474.984 341.873L475.51 343.095L476.731 342.57L476.206 341.348ZM457.769 298.467L457.244 297.246L456.023 297.771L456.548 298.993L457.769 298.467ZM485.223 286.664L486.444 286.139L485.919 284.917L484.698 285.442L485.223 286.664ZM488.435 294.134L488.96 295.356L490.182 294.831L489.656 293.609L488.435 294.134ZM469.971 302.073L469.445 300.852L468.224 301.377L468.749 302.598L469.971 302.073ZM474.253 312.034L473.032 312.559L473.557 313.781L474.779 313.256L474.253 312.034ZM492.535 304.174L493.757 303.649L493.232 302.427L492.01 302.952L492.535 304.174ZM495.695 311.523L496.22 312.745L497.442 312.219L496.917 310.998L495.695 311.523ZM477.413 319.383L476.888 318.162L475.666 318.687L476.192 319.909L477.413 319.383ZM481.983 330.012L480.762 330.538L481.287 331.759L482.508 331.234L481.983 330.012ZM500.447 322.074L501.669 321.549L501.144 320.327L499.922 320.852L500.447 322.074ZM503.659 329.544L504.185 330.766L505.406 330.241L504.881 329.019L503.659 329.544ZM476.206 341.348L477.428 340.823L458.991 297.942L457.769 298.467L456.548 298.993L474.984 341.873L476.206 341.348ZM457.769 298.467L458.295 299.689L485.748 287.885L485.223 286.664L484.698 285.442L457.244 297.246L457.769 298.467ZM485.223 286.664L484.001 287.189L487.213 294.66L488.435 294.134L489.656 293.609L486.444 286.139L485.223 286.664ZM488.435 294.134L487.91 292.913L469.445 300.852L469.971 302.073L470.496 303.295L488.96 295.356L488.435 294.134ZM469.971 302.073L468.749 302.598L473.032 312.559L474.253 312.034L475.475 311.509L471.192 301.548L469.971 302.073ZM474.253 312.034L474.779 313.256L493.061 305.395L492.535 304.174L492.01 302.952L473.728 310.813L474.253 312.034ZM492.535 304.174L491.314 304.699L494.474 312.048L495.695 311.523L496.917 310.998L493.757 303.649L492.535 304.174ZM495.695 311.523L495.17 310.301L476.888 318.162L477.413 319.383L477.938 320.605L496.22 312.745L495.695 311.523ZM477.413 319.383L476.192 319.909L480.762 330.538L481.983 330.012L483.205 329.487L478.635 318.858L477.413 319.383ZM481.983 330.012L482.508 331.234L500.972 323.295L500.447 322.074L499.922 320.852L481.458 328.791L481.983 330.012ZM500.447 322.074L499.226 322.599L502.438 330.07L503.659 329.544L504.881 329.019L501.669 321.549L500.447 322.074ZM503.659 329.544L503.134 328.323L475.681 340.127L476.206 341.348L476.731 342.57L504.185 330.766L503.659 329.544ZM510.947 326.411L509.726 326.936L510.251 328.158L511.473 327.632L510.947 326.411ZM492.511 283.53L491.986 282.309L490.764 282.834L491.289 284.055L492.511 283.53ZM519.964 271.727L521.186 271.201L520.66 269.98L519.439 270.505L519.964 271.727ZM523.176 279.197L523.701 280.419L524.923 279.894L524.398 278.672L523.176 279.197ZM504.712 287.136L504.187 285.915L502.965 286.44L503.49 287.661L504.712 287.136ZM508.995 297.097L507.773 297.622L508.298 298.844L509.52 298.319L508.995 297.097ZM527.277 289.237L528.498 288.712L527.973 287.49L526.751 288.015L527.277 289.237ZM530.436 296.586L530.962 297.807L532.183 297.282L531.658 296.061L530.436 296.586ZM512.154 304.446L511.629 303.225L510.408 303.75L510.933 304.971L512.154 304.446ZM516.724 315.075L515.503 315.601L516.028 316.822L517.25 316.297L516.724 315.075ZM535.189 307.137L536.41 306.611L535.885 305.39L534.663 305.915L535.189 307.137ZM538.401 314.607L538.926 315.829L540.147 315.304L539.622 314.082L538.401 314.607ZM510.947 326.411L512.169 325.886L493.732 283.005L492.511 283.53L491.289 284.055L509.726 326.936L510.947 326.411ZM492.511 283.53L493.036 284.752L520.489 272.948L519.964 271.727L519.439 270.505L491.986 282.309L492.511 283.53ZM519.964 271.727L518.743 272.252L521.955 279.723L523.176 279.197L524.398 278.672L521.186 271.201L519.964 271.727ZM523.176 279.197L522.651 277.976L504.187 285.915L504.712 287.136L505.237 288.358L523.701 280.419L523.176 279.197ZM504.712 287.136L503.49 287.661L507.773 297.622L508.995 297.097L510.216 296.572L505.934 286.611L504.712 287.136ZM508.995 297.097L509.52 298.319L527.802 290.458L527.277 289.237L526.751 288.015L508.469 295.876L508.995 297.097ZM527.277 289.237L526.055 289.762L529.215 297.111L530.436 296.586L531.658 296.061L528.498 288.712L527.277 289.237ZM530.436 296.586L529.911 295.364L511.629 303.225L512.154 304.446L512.68 305.668L530.962 297.807L530.436 296.586ZM512.154 304.446L510.933 304.971L515.503 315.601L516.724 315.075L517.946 314.55L513.376 303.921L512.154 304.446ZM516.724 315.075L517.25 316.297L535.714 308.358L535.189 307.137L534.663 305.915L516.199 313.854L516.724 315.075ZM535.189 307.137L533.967 307.662L537.179 315.133L538.401 314.607L539.622 314.082L536.41 306.611L535.189 307.137ZM538.401 314.607L537.876 313.386L510.422 325.189L510.947 326.411L511.473 327.632L538.926 315.829L538.401 314.607ZM542.608 297.11L541.409 297.685L541.96 298.836L543.133 298.332L542.608 297.11ZM528.649 267.993L528.124 266.771L526.851 267.318L527.45 268.567L528.649 267.993ZM537.881 264.023L539.123 263.548L538.629 262.255L537.356 262.802L537.881 264.023ZM549.41 294.185L549.935 295.407L551.108 294.903L550.652 293.711L549.41 294.185ZM542.608 297.11L543.807 296.535L529.848 267.418L528.649 267.993L527.45 268.567L541.409 297.685L542.608 297.11ZM528.649 267.993L529.174 269.214L538.406 265.245L537.881 264.023L537.356 262.802L528.124 266.771L528.649 267.993ZM537.881 264.023L536.639 264.498L548.168 294.66L549.41 294.185L550.652 293.711L539.123 263.548L537.881 264.023ZM549.41 294.185L548.885 292.964L542.082 295.889L542.608 297.11L543.133 298.332L549.935 295.407L549.41 294.185ZM552.172 309.982L551.647 308.76C550.4 309.296 549.251 309.308 548.327 308.962C547.41 308.619 546.599 307.882 546.089 306.696L544.868 307.221L543.646 307.746C544.416 309.537 545.739 310.833 547.395 311.452C549.044 312.07 550.907 311.973 552.697 311.203L552.172 309.982ZM544.868 307.221L546.089 306.696C545.533 305.402 545.564 304.295 545.939 303.42C546.32 302.533 547.121 301.726 548.388 301.182L547.863 299.96L547.338 298.739C545.568 299.5 544.193 300.745 543.495 302.372C542.793 304.011 542.845 305.882 543.646 307.746L544.868 307.221ZM547.863 299.96L548.388 301.182C549.655 300.637 550.792 300.61 551.697 300.944C552.591 301.274 553.415 302.013 553.972 303.307L555.193 302.782L556.415 302.256C555.613 300.392 554.291 299.067 552.618 298.45C550.957 297.836 549.108 297.978 547.338 298.739L547.863 299.96ZM555.193 302.782L553.972 303.307C554.481 304.493 554.459 305.588 554.077 306.49C553.692 307.398 552.893 308.224 551.647 308.76L552.172 309.982L552.697 311.203C554.487 310.434 555.839 309.148 556.526 307.527C557.215 305.899 557.185 304.047 556.415 302.256L555.193 302.782Z" fill="white"/>
</svg>
