<svg width="534" height="700" viewBox="0 0 534 700" fill="none" xmlns="http://www.w3.org/2000/svg">
<path d="M87.3831 67.9832C79.2349 67.6382 71.79 63.8428 66.0173 58.707C59.5147 52.921 55.1619 45.4363 51.8708 37.7526C49.8934 33.1477 48.2346 28.4366 46.5891 23.7388C45.8592 21.6686 42.8467 21.735 42.0903 23.7388C39.5556 30.467 36.4503 36.9829 32.7743 43.2467C29.722 48.4355 26.3248 53.6509 21.335 57.4728C21.1227 57.6321 20.9103 57.7913 20.698 57.9373C15.2305 61.0692 8.79422 62.6219 2.2916 62.3034C-0.296179 62.1839 -0.946441 66.0988 1.66788 66.5234C19.4506 69.4695 34.3535 82.289 39.7679 98.0545C41.3073 102.527 42.0372 107.145 41.9178 111.829C41.8514 114.377 45.6336 114.576 46.4962 112.4C52.2424 98.0545 58.891 82.0634 74.7892 74.9105C78.7173 73.1455 83.017 72.2033 87.3963 72.2696C90.4088 72.3094 90.3822 68.0894 87.3963 67.9699L87.3831 67.9832Z" fill="#FF7C6D"/>
<path d="M531.552 140.787C525.978 140.548 520.882 137.947 516.914 134.443C512.455 130.489 509.483 125.353 507.227 120.098C505.873 116.953 504.745 113.728 503.604 110.503C503.1 109.083 501.043 109.123 500.525 110.503C498.8 115.108 496.663 119.567 494.142 123.854C492.058 127.41 489.723 130.98 486.312 133.594C486.166 133.7 486.02 133.806 485.874 133.913C482.132 136.049 477.726 137.111 473.267 136.912C471.502 136.832 471.051 139.513 472.843 139.805C485.012 141.822 495.217 150.594 498.933 161.396C499.981 164.462 500.485 167.62 500.406 170.832C500.366 172.583 502.954 172.716 503.538 171.216C507.466 161.396 512.031 150.448 522.913 145.551C525.607 144.343 528.553 143.693 531.539 143.746C533.609 143.773 533.582 140.893 531.539 140.8L531.552 140.787Z" fill="#FF7C6D"/>
<path d="M266.358 517.753V428.876C266.358 423.761 262.167 419.57 257.052 419.57H227.569C222.443 419.57 218.263 423.761 218.263 428.876V473.669H185.896V497.294H218.263V517.753C194.616 527.284 177.92 550.424 177.92 577.485C177.92 613.04 206.75 641.869 242.305 641.869C277.86 641.869 306.69 613.04 306.69 577.485C306.69 550.424 289.993 527.284 266.346 517.753H266.358Z" fill="#FFA241"/>
<path d="M339.266 671.155C330.625 664.339 322.975 656.43 316.621 647.428C313.76 643.384 307.034 647.26 309.918 651.349C316.666 660.891 324.597 669.397 333.779 676.641C337.655 679.705 343.186 674.253 339.266 671.155Z" fill="#FFA241"/>
<path d="M368.073 632.309C358.779 628.873 349.755 624.84 340.979 620.232C336.562 617.911 332.642 624.603 337.058 626.935C346.42 631.858 356.086 636.128 366.011 639.789C370.698 641.524 372.726 634.021 368.073 632.309Z" fill="#FFA241"/>
<path d="M376.184 569.787C366.878 570.237 357.573 570.688 348.267 571.138C343.299 571.375 343.265 579.137 348.267 578.901C357.573 578.45 366.878 577.999 376.184 577.549C381.152 577.312 381.186 569.55 376.184 569.787Z" fill="#FFA241"/>
<path d="M206.35 631.39C193.879 635.502 182.23 641.552 171.786 649.517C167.866 652.503 171.73 659.251 175.707 656.22C185.621 648.661 196.571 642.78 208.412 638.882C213.132 637.327 211.104 629.835 206.35 631.401V631.39Z" fill="#FFA241"/>
<path d="M185.227 588.41C175.482 587.001 165.703 586.258 155.857 586.258C151.779 586.258 151.767 592.601 155.857 592.601C165.117 592.601 174.367 593.198 183.537 594.527C187.525 595.102 189.249 588.995 185.227 588.41Z" fill="#FFA241"/>
<path d="M196.042 541.621C192.358 538.219 187.649 535.988 183.323 533.498C178.434 530.67 173.544 527.854 168.655 525.026C164.329 522.525 160.408 529.228 164.734 531.729C169.196 534.309 173.657 536.889 178.129 539.469C182.219 541.835 187.063 543.897 190.544 547.119C194.206 550.498 199.704 545.023 196.031 541.632L196.042 541.621Z" fill="#FFA241"/>
<path d="M357.528 514.834C346.724 519.251 336.348 524.478 326.445 530.652C322.22 533.288 326.107 540.002 330.366 537.355C339.682 531.542 349.428 526.472 359.601 522.315C364.163 520.456 362.169 512.942 357.539 514.834H357.528Z" fill="#FFA241"/>
<path d="M293.819 694.46C292.366 684.073 290.924 673.697 289.471 663.31C288.738 658.027 280.706 660.28 281.438 665.53C282.891 675.906 284.333 686.293 285.787 696.669C286.519 701.952 294.552 699.71 293.819 694.46Z" fill="#FFA241"/>
<path d="M243.291 658.347C241.263 667.934 239.247 677.521 237.219 687.109C236.115 692.336 244.147 694.567 245.252 689.328C247.279 679.741 249.296 670.153 251.324 660.566C252.428 655.339 244.395 653.108 243.291 658.347Z" fill="#FFA241"/>
<path d="M395.663 204.858C395.663 204.858 409.61 22.7783 274.926 9.57467C140.242 -3.62899 142.799 126.357 142.799 126.357L166.537 125.152C166.537 125.152 156.938 31.4305 249.859 24.885C344.448 18.2269 372.241 96.3109 370.472 204.847H395.663V204.858Z" fill="#E4E4E4"/>
<path d="M395.662 213.244H370.472C368.219 213.244 366.067 212.343 364.49 210.732C362.912 209.132 362.045 206.958 362.079 204.705C362.653 169.127 359.904 138.777 353.9 114.499C347.444 88.3956 337.001 68.3761 322.873 54.9922C305.118 38.1722 281.437 31.0521 250.445 33.2377C225.57 34.9839 206.463 43.6024 193.653 58.8339C171.2 85.5341 174.839 123.883 174.873 124.266C175.11 126.553 174.389 128.84 172.89 130.586C171.392 132.333 169.24 133.392 166.942 133.504L143.205 134.71C140.918 134.834 138.721 134.011 137.053 132.468C135.386 130.924 134.428 128.761 134.383 126.486C134.338 124.041 133.662 66.0666 173.532 29.1933C198.227 6.40233 232.611 -3.01597 275.748 1.20874C334.545 6.97689 375.395 44.5487 393.882 109.868C407.48 157.929 404.179 203.567 404.033 205.482C403.695 209.853 400.045 213.233 395.662 213.233V213.244ZM378.955 196.447H387.607C387.923 181.711 387.314 148.082 377.614 114.048C366.979 76.7129 349.01 50.0465 323.977 34.2629C327.639 36.8428 331.12 39.6931 334.421 42.8138C364.501 71.3053 379.09 121.619 378.955 196.447ZM223.508 20.9466C208.479 24.8672 195.625 31.7168 185.046 41.4731C159.135 65.3681 153.051 101.16 151.62 117.507L157.839 117.191C157.895 102.388 160.734 71.9249 180.81 48.0637C191.716 35.0966 206.012 26.0388 223.508 20.9579V20.9466Z" fill="#E4E4E4"/>
<path d="M111.277 164.898H414.184C423.884 164.898 431.747 172.773 431.747 182.462V435.686C431.747 445.386 423.873 453.249 414.184 453.249H111.277C101.577 453.249 93.7136 445.375 93.7136 435.686V182.462C93.7136 172.762 101.588 164.898 111.277 164.898Z" fill="#322565"/>
<path d="M129.562 164.898H420.797C430.497 164.898 438.361 172.773 438.361 182.462V435.686C438.361 445.386 430.486 453.249 420.797 453.249H129.562C119.862 453.249 111.999 445.375 111.999 435.686V182.462C111.999 172.762 119.873 164.898 129.562 164.898Z" fill="#5B4A9A"/>
<path d="M335.612 376.355C367.228 344.739 367.228 293.48 335.612 261.864C303.997 230.249 252.738 230.249 221.122 261.864C189.506 293.48 189.506 344.739 221.122 376.354C252.738 407.97 303.997 407.97 335.612 376.355Z" fill="#936600"/>
<path d="M325.644 376.355C357.26 344.739 357.26 293.48 325.644 261.864C294.029 230.249 242.77 230.249 211.154 261.864C179.538 293.48 179.538 344.739 211.154 376.354C242.77 407.97 294.029 407.97 325.644 376.355Z" fill="#FFA241"/>
</svg>
